<?xml version="1.0" encoding="UTF-8"?>
<svg width="192px" height="192px" viewBox="0 0 192 192" version="1.1" xmlns="http://www.w3.org/2000/svg" xmlns:xlink="http://www.w3.org/1999/xlink">
    <!-- Generator: Sketch 49.1 (51147) - http://www.bohemiancoding.com/sketch -->
    <title>logo</title>
    <desc>Created with Sketch.</desc>
    <defs></defs>
    <g id="Page-1" stroke="none" stroke-width="1" fill="none" fill-rule="evenodd">
        <g id="svg" fill="#1C1C1B">
            <g id="logo">
                <path d="M96,192 C42.980664,192 0,149.019336 0,96 C0,42.980664 42.980664,0 96,0 C149.019336,0 192,42.980664 192,96 C192,149.019336 149.019336,192 96,192 Z M78.9253333,108.066667 L78.9253333,67.6426667 L65.9466667,67.6426667 L65.9466667,107.488 C65.9466667,108.535116 65.9053337,109.62355 65.8226667,110.753333 C65.7399996,111.883117 65.4920021,112.930217 65.0786667,113.894667 C64.6653313,114.859116 63.9902269,115.644441 63.0533333,116.250667 C62.1164398,116.856892 60.7937863,117.16 59.0853333,117.16 C57.5422145,117.16 56.2884493,116.912002 55.324,116.416 C54.3595507,115.919998 53.6017805,115.244893 53.0506667,114.390667 C52.4995528,113.53644 52.1137789,112.503117 51.8933333,111.290667 C51.6728878,110.078216 51.5626667,108.755563 51.5626667,107.322667 L51.5626667,104.677333 L39.824,104.677333 L39.824,109.802667 C39.824,113.054238 40.3751056,115.823544 41.4773333,118.110667 C42.5795611,120.397789 44.0399909,122.271548 45.8586667,123.732 C47.6773424,125.192452 49.7439884,126.267108 52.0586667,126.956 C54.3733449,127.644892 56.7706543,127.989333 59.2506667,127.989333 C63.6595776,127.989333 67.1590982,127.314229 69.7493333,125.964 C72.3395685,124.613771 74.3235487,122.932899 75.7013333,120.921333 C77.079118,118.909768 77.960887,116.746678 78.3466667,114.432 C78.7324464,112.117322 78.9253333,109.995565 78.9253333,108.066667 Z M136.349333,87.4826667 L148.914667,87.4826667 C148.528887,84.0657607 147.592007,81.0346799 146.104,78.3893333 C144.615993,75.7439868 142.728456,73.5257867 140.441333,71.7346667 C138.154211,69.9435466 135.564014,68.5795602 132.670667,67.6426667 C129.777319,66.7057731 126.704905,66.2373333 123.453333,66.2373333 C118.9342,66.2373333 114.869796,67.0364365 111.26,68.6346667 C107.650204,70.2328969 104.605346,72.4373193 102.125333,75.248 C99.6453209,78.0586807 97.7440066,81.3515367 96.4213333,85.1266667 C95.0986601,88.9017967 94.4373333,92.9937557 94.4373333,97.4026667 C94.4373333,101.701355 95.0986601,105.710648 96.4213333,109.430667 C97.7440066,113.150685 99.6453209,116.388431 102.125333,119.144 C104.605346,121.899569 107.650204,124.062659 111.26,125.633333 C114.869796,127.204008 118.9342,127.989333 123.453333,127.989333 C127.090685,127.989333 130.424874,127.438228 133.456,126.336 C136.487126,125.233772 139.132433,123.635566 141.392,121.541333 C143.651567,119.447101 145.470215,116.912015 146.848,113.936 C148.225785,110.959985 149.079998,107.625796 149.410667,103.933333 L136.845333,103.933333 C136.349331,107.901353 134.985344,111.097766 132.753333,113.522667 C130.521322,115.947568 127.421353,117.16 123.453333,117.16 C120.53243,117.16 118.052455,116.595117 116.013333,115.465333 C113.974212,114.33555 112.320895,112.833787 111.053333,110.96 C109.785771,109.086213 108.86267,106.978234 108.284,104.636 C107.70533,102.293766 107.416,99.8826791 107.416,97.4026667 C107.416,94.8124315 107.70533,92.304901 108.284,89.88 C108.86267,87.455099 109.785771,85.2920095 111.053333,83.3906667 C112.320895,81.4893238 113.974212,79.9737834 116.013333,78.844 C118.052455,77.7142166 120.53243,77.1493333 123.453333,77.1493333 C125.051564,77.1493333 126.580882,77.4111085 128.041333,77.9346667 C129.501785,78.4582248 130.810661,79.1884398 131.968,80.1253333 C133.125339,81.0622269 134.089774,82.1506605 134.861333,83.3906667 C135.632893,84.6306729 136.128888,85.9946592 136.349333,87.4826667 Z" id="Combined-Shape"></path>
            </g>
        </g>
    </g>
</svg>